<svg id="visual" viewBox="0 0 900 450" width="900" height="450" xmlns="http://www.w3.org/2000/svg" xmlns:xlink="http://www.w3.org/1999/xlink" version="1.1"><rect x="0" y="0" width="900" height="450" fill="#B3DE17"></rect><path d="M0 378L18.8 360.2C37.7 342.3 75.3 306.7 112.8 308.3C150.3 310 187.7 349 225.2 351.8C262.7 354.7 300.3 321.3 337.8 314.5C375.3 307.7 412.7 327.3 450.2 326C487.7 324.7 525.3 302.3 562.8 311.2C600.3 320 637.7 360 675.2 374C712.7 388 750.3 376 787.8 371.7C825.3 367.3 862.7 370.7 881.3 372.3L900 374L900 451L881.3 451C862.7 451 825.3 451 787.8 451C750.3 451 712.7 451 675.2 451C637.7 451 600.3 451 562.8 451C525.3 451 487.7 451 450.2 451C412.7 451 375.3 451 337.8 451C300.3 451 262.7 451 225.2 451C187.7 451 150.3 451 112.8 451C75.3 451 37.7 451 18.8 451L0 451Z" fill="#ffffff" stroke-linecap="round" stroke-linejoin="miter"></path></svg>