<svg xmlns="http://www.w3.org/2000/svg" version="1.1" xmlns:xlink="http://www.w3.org/1999/xlink" xmlns:svgjs="http://svgjs.dev/svgjs" viewBox="0 0 1422 800" preserveAspectRatio="xMidYMid slice"><defs><filter id="uuunion-blur" x="-100%" y="-100%" width="400%" height="400%" color-interpolation-filters="sRGB">
        <feGaussianBlur in="SourceGraphic" stdDeviation="7.5 0" result="blur"></feGaussianBlur>
        <feDropShadow stdDeviation="12.307692307692308" in="blur" dx="10" dy="10" flood-color="hsl(271, 100%, 26%)" flood-opacity="0.25" x="0%" y="0%" width="100%" height="100%"></feDropShadow>
      </filter><filter id="uuunion-blur2" x="-100%" y="-100%" width="400%" height="400%" color-interpolation-filters="sRGB">
        <feGaussianBlur in="SourceGraphic" stdDeviation="7.5 0" result="blur"></feGaussianBlur>
        <feDropShadow stdDeviation="12.307692307692308" in="blur" dx="-10" dy="-10" flood-color="hsl(271, 100%, 26%)" flood-opacity="0.25" x="0%" y="0%" width="100%" height="100%"></feDropShadow>
      </filter><linearGradient gradientTransform="rotate(0, 0.5, 0.5)" x1="50%" y1="0%" x2="50%" y2="100%" id="uuunion-grad"><stop stop-color="hsl(271, 100%, 13%)" offset="10%"></stop><stop stop-color="hsl(271, 100%, 26%)" offset="90%"></stop></linearGradient><linearGradient gradientTransform="rotate(135, 0.5, 0.5)" x1="50%" y1="0%" x2="50%" y2="100%" id="uuunion-grad2"><stop stop-color="hsl(271, 100%, 13%)" offset="25%"></stop><stop stop-color="hsl(271, 100%, 26%)" offset="100%"></stop></linearGradient><linearGradient gradientTransform="rotate(333, 0.5, 0.5)" x1="50%" y1="0%" x2="50%" y2="100%" id="uuunion-grad3"><stop stop-color="hsl(271, 100%, 13%)" offset="0%"></stop><stop stop-color="hsl(271, 100%, 26%)" offset="75%"></stop></linearGradient></defs><path d="M-131.34 -86.78Q-118.36 -85.33 -105.37 -83.59 -92.39 -81.67 -79.41 -79.66 -66.42 -77.66 -53.44 -75.79 -40.46 -74.14 -27.48 -72.8 -14.49 -71.83 -1.51 -71.3 11.46 -71.22 24.44 -71.61 37.43 -72.43 50.41 -73.65 63.39 -75.21 76.38 -77.02 89.36 -78.99 102.34 -81 115.32 -82.97 128.31 -84.78 141.29 -86.33 154.27 -87.56 167.25 -88.38 180.24 -88.77 193.22 -88.69 206.2 -88.16 219.19 -87.19 232.17 -85.85 245.15 -84.2 258.13 -82.33 271.12 -80.34 284.1 -78.32 297.08 -76.4 310.07 -74.66 323.05 -73.21 336.03 -72.11 349.01 -71.43 362 -71.2 374.98 -71.43 387.96 -72.11 400.95 -73.2 413.93 -74.66 426.91 -76.39 439.89 -78.31 452.88 -80.33 465.86 -82.32 478.84 -84.19 491.83 -85.84 504.81 -87.19 517.79 -88.15 530.77 -88.69 543.76 -88.77 556.74 -88.39 569.72 -87.56 582.7 -86.34 595.69 -84.79 608.67 -82.98 621.65 -81.01 634.64 -79 647.62 -77.03 660.6 -75.22 673.58 -73.66 686.57 -72.44 699.55 -71.61 712.53 -71.22 725.52 -71.3 738.5 -71.83 751.48 -72.79 764.46 -74.13 777.45 -75.78 790.43 -77.65 803.41 -79.65 816.4 -81.66 829.38 -83.58 842.36 -85.32 855.34 -86.78 868.33 -87.88 881.31 -88.56 894.29 -88.79 907.28 -88.57 920.26 -87.89 933.24 -86.79 946.22 -85.34 959.21 -83.61 972.19 -81.69 985.17 -79.67 998.16 -77.68 1011.14 -75.8 1024.12 -74.15 1037.1 -72.81 1050.09 -71.84 1063.07 -71.3 1076.05 -71.22 1089.04 -71.6 1102.02 -72.42 1115 -73.64 1127.98 -75.2 1140.97 -77 1153.95 -78.97 1166.93 -80.99 1179.92 -82.95 1192.9 -84.76 1205.88 -86.32 1218.86 -87.55 1231.85 -88.38 1244.83 -88.77 1257.81 -88.69 1270.8 -88.16 1283.78 -87.2 1296.76 -85.87 1309.74 -84.22 1322.73 -82.35 1335.71 -80.35 1348.69 -78.34 1361.68 -76.41 1374.66 -74.68 1387.64 -73.22 1400.63 -72.12 1413.61 -71.43 1426.59 -71.2 1439.57 -71.42 1452.56 -72.1 1465.54 -73.19 1478.52 -74.64 1491.51 -76.37 1504.49 -78.3 1517.47 -80.31 1530.45 -82.3 1531.09 -67.36 1534.93 -52.42 1541.61 -37.48 1550.48 -22.54 1560.67 -7.6 1571.21 7.33 1581.06 22.27 1589.28 37.21 1595.08 52.16 1597.88 67.1 1597.42 82.04 1593.74 96.98 1587.19 111.92 1578.43 126.86 1568.28 141.8 1557.74 156.74 1547.82 171.68 1539.49 186.62 1533.55 201.57 1530.58 216.51 1530.87 231.45 1534.38 246.39 1540.79 261.33 1549.46 276.27 1559.55 291.21 1570.1 306.15 1580.08 321.09 1588.51 336.03 1594.6 350.97 1597.73 365.92 1597.62 380.86 1594.27 395.8 1588.01 410.74 1579.44 425.68 1569.39 440.62 1558.84 455.56 1548.81 470.5 1540.27 485.44 1534.05 500.38 1530.74 515.33 1530.68 530.27 1533.86 545.21 1539.98 560.15 1548.45 575.09 1558.44 590.03 1568.99 604.97 1579.07 619.91 1587.72 634.85 1594.08 649.79 1597.55 664.74 1597.79 679.68 1594.77 694.62 1588.8 709.56 1580.43 724.5 1570.5 739.44 1559.96 754.38 1549.82 769.32 1541.08 784.26 1534.58 799.2 1530.94 814.15 1530.53 829.09 1533.38 844.03 1539.21 858.97 1547.46 873.91 1534.31 879.17 1521.15 884.47 1507.99 889.54 1494.83 894.11 1481.67 897.93 1468.51 900.81 1455.35 902.6 1442.2 903.19 1429.04 902.57 1415.88 900.76 1402.72 897.86 1389.56 894.01 1376.4 889.43 1363.24 884.36 1350.09 879.05 1336.93 873.79 1323.77 868.86 1310.61 864.52 1297.45 860.99 1284.29 858.46 1271.14 857.06 1257.98 856.87 1244.82 857.89 1231.66 860.08 1218.5 863.31 1205.34 867.43 1192.18 872.2 1179.03 877.38 1165.87 882.7 1152.71 887.88 1139.55 892.65 1126.39 896.74 1113.23 899.96 1100.07 902.13 1086.92 903.13 1073.76 902.92 1060.6 901.5 1047.44 898.95 1034.28 895.4 1021.12 891.04 1007.97 886.1 994.81 880.84 981.65 875.54 968.49 870.47 955.33 865.9 942.17 862.07 929.01 859.19 915.86 857.4 902.7 856.8 889.54 857.41 876.38 859.22 863.22 862.12 850.06 865.96 836.91 870.54 823.75 875.61 810.59 880.92 797.43 886.17 784.27 891.11 771.11 895.45 757.95 898.99 744.8 901.52 731.64 902.93 718.48 903.12 705.32 902.11 692.16 899.92 679 896.69 665.85 892.58 652.69 887.81 639.53 882.63 626.37 877.31 613.21 872.13 600.05 867.36 586.9 863.26 573.74 860.04 560.58 857.87 547.42 856.86 534.26 857.07 521.1 858.48 507.94 861.03 494.79 864.57 481.63 868.93 468.47 873.86 455.31 879.12 442.15 884.43 428.99 889.5 415.84 894.07 402.68 897.9 389.52 900.79 376.36 902.59 363.2 903.19 350.04 902.58 336.89 900.78 323.73 897.89 310.57 894.05 297.41 889.48 284.25 884.4 271.09 879.1 257.93 873.84 244.78 868.91 231.62 864.55 218.46 861.02 205.3 858.47 192.14 857.07 178.98 856.86 165.83 857.88 152.67 860.05 139.51 863.28 126.35 867.39 113.19 872.15 100.03 877.34 86.88 882.66 73.72 887.84 60.56 892.61 47.4 896.71 34.24 899.94 21.08 902.11 7.93 903.13 -5.22 902.92 -18.38 901.51 -31.54 898.97 -44.7 895.43 -57.86 891.08 -71.01 886.15 -84.17 880.89 -97.33 875.59 -110.49 870.51 -123.65 865.94 -136.81 862.1 -134.15 847.28 -132.28 832.45 -131.36 817.62 -131.5 802.8 -132.66 787.97 -134.75 773.14 -137.56 758.32 -140.82 743.49 -144.21 728.66 -147.41 713.84 -150.09 699.01 -152.01 684.18 -152.98 669.36 -152.91 654.53 -151.79 639.71 -149.75 624.88 -146.97 610.05 -143.73 595.23 -140.34 580.4 -137.12 565.57 -134.4 550.75 -132.43 535.92 -131.41 521.09 -131.43 506.27 -132.49 491.44 -134.49 476.61 -137.24 461.79 -140.46 446.96 -143.86 432.13 -147.09 417.31 -149.84 402.48 -151.85 387.66 -152.93 372.83 -152.97 358 -151.96 343.18 -150 328.35 -147.29 313.52 -144.08 298.7 -140.69 283.87 -137.45 269.04 -134.66 254.22 -132.6 239.39 -131.47 224.56 -131.38 209.74 -132.33 194.91 -134.24 180.08 -136.92 165.26 -140.11 150.43 -143.5 135.61 -146.76 120.78 -149.58 105.95 -151.68 91.13 -152.86 76.3 -153.01 61.47 -152.11 46.65 -150.25 31.82 -147.61 16.99 -144.44 2.17 -141.05 -12.65 -137.78 -27.48 -134.93 -42.3 -132.78 -57.13 -131.54 -71.96 -131.34 -86.78" fill="url(#uuunion-grad)"></path><path d="M-131.35 -86.78Q-131.55 -71.96 -132.79 -57.13 -134.94 -42.3 -137.79 -27.48 -141.06 -12.65 -144.45 2.17 -147.62 16.99 -150.26 31.82 -152.12 46.65 -153.02 61.47 -152.87 76.3 -151.69 91.12 -149.59 105.95 -146.77 120.78 -143.51 135.6 -140.12 150.43 -136.93 165.26 -134.25 180.08 -132.34 194.91 -131.39 209.74 -131.48 224.56 -132.61 239.39 -134.67 254.22 -137.46 269.04 -140.7 283.87 -144.09 298.7 -147.3 313.52 -150.01 328.35 -151.97 343.17 -152.98 358 -152.94 372.83 -151.86 387.65 -142.77 389.35 -133.67 391.3 -124.58 393.45 -115.49 395.76 -106.39 398.16 -97.3 400.61 -88.2 403.04 -79.11 405.41 -70.01 407.64 -60.92 409.7 -51.82 411.52 -42.73 413.08 -33.63 414.33 -24.54 415.25 -7.35 415.94 -4.32 415.99 6.84 412.42 18.04 408.29 29.28 403.64 40.56 398.52 51.87 393.01 63.2 387.2 74.57 381.2 85.96 375.09 97.36 369.01 108.78 363.04 120.22 357.3 131.66 351.87 143.1 346.85 154.54 342.29 165.98 338.26 177.41 334.76 188.83 331.82 200.23 329.43 211.62 327.56 222.98 326.15 234.33 325.15 245.64 324.46 256.92 324.01 268.18 323.69 279.4 323.41 290.58 323.04 301.73 322.51 312.85 321.7 323.92 320.55 334.96 318.98 345.95 316.93 356.91 314.38 367.83 311.29 378.72 307.69 389.57 303.58 400.38 299 411.17 294.02 421.92 288.69 432.65 283.11 443.35 277.37 454.03 271.55 464.69 265.77 475.33 260.11 485.96 254.67 496.59 249.53 507.21 244.76 517.83 240.42 528.45 236.55 539.08 233.17 549.72 230.29 560.37 227.9 571.05 225.97 581.75 224.45 592.48 223.28 603.25 222.39 614.04 221.69 624.88 221.09 635.76 220.5 646.69 219.83 657.67 218.99 668.7 217.9 679.79 216.48 690.93 214.68 702.14 212.45 713.4 209.76 724.73 206.6 736.12 202.97 747.58 198.89 759.1 194.41 770.68 189.57 782.33 184.44 794.04 179.1 805.82 173.62 817.65 168.1 829.54 162.62 841.49 157.27 853.49 152.12 865.53 147.25 877.62 142.72 889.76 138.58 901.93 134.87 914.13 131.59 926.36 128.76 938.61 126.35 950.88 124.35 963.15 122.7 975.44 121.35 987.72 120.23 999.99 119.27 1012.25 118.39 1024.49 117.51 1036.7 116.53 1048.88 115.39 1061.02 114.02 1073.12 112.35 1085.16 110.33 1097.14 107.93 1109.06 105.12 1120.91 101.9 1132.68 98.26 1144.37 94.24 1155.98 89.86 1167.49 85.19 1178.92 80.27 1190.24 75.17 1201.46 69.97 1212.57 64.74 1223.58 59.56 1234.48 54.51 1245.27 49.65 1255.95 45.04 1266.51 40.74 1276.96 36.79 1287.3 33.21 1297.53 30.02 1307.65 27.21 1317.66 24.78 1327.57 22.68 1337.38 20.89 1347.09 19.35 1356.72 18 1366.25 16.78 1375.71 15.61 1385.09 14.42 1394.4 13.15 1403.65 11.72 1412.84 10.07 1422 8.16 1411.24 -9.54 1401.9 -27.26 1395.2 -44.97 1392.02 -62.69 1392.78 -80.4 1397.39 -98.12 1405.23 -115.83 1415.27 -133.54 1403.03 -134.65 1390.79 -136 1378.55 -137.52 1366.31 -139.16 1354.07 -140.83 1341.82 -142.47 1329.58 -143.99 1317.34 -145.34 1305.1 -146.45 1292.86 -147.26 1280.62 -147.75 1268.38 -147.89 1256.14 -147.68 1243.9 -147.12 1231.66 -146.24 1219.42 -145.09 1207.18 -143.7 1194.94 -142.15 1182.7 -140.5 1170.46 -138.82 1158.22 -137.2 1145.98 -135.71 1133.74 -134.41 1121.5 -133.36 1109.26 -132.6 1097.02 -132.18 1084.78 -132.11 1072.54 -132.39 1060.3 -133.02 1048.06 -133.96 1035.81 -135.17 1023.57 -136.59 1011.33 -138.17 999.09 -139.83 986.85 -141.5 974.61 -143.1 962.37 -144.56 950.13 -145.82 937.89 -146.81 925.65 -147.5 913.41 -147.85 901.17 -147.85 888.93 -147.5 876.69 -146.81 864.45 -145.81 852.21 -144.55 839.97 -143.09 827.73 -141.49 815.49 -139.82 803.25 -138.16 791.01 -136.58 778.77 -135.16 766.53 -133.95 754.29 -133.02 742.04 -132.39 729.8 -132.11 717.56 -132.18 705.32 -132.61 693.08 -133.36 680.84 -134.41 668.6 -135.72 656.36 -137.21 644.12 -138.83 631.88 -140.5 619.64 -142.15 607.4 -143.71 595.16 -145.09 582.92 -146.25 570.68 -147.13 558.44 -147.68 546.2 -147.89 533.96 -147.75 521.72 -147.26 509.48 -146.44 497.24 -145.33 485 -143.99 472.76 -142.46 460.52 -140.82 448.27 -139.15 436.03 -137.51 423.79 -135.99 411.55 -134.64 399.31 -133.54 387.07 -132.73 374.83 -132.24 362.59 -132.1 350.35 -132.31 338.11 -132.87 325.87 -133.75 313.63 -134.91 301.39 -136.3 289.15 -137.85 276.91 -139.5 264.67 -141.17 252.43 -142.79 240.19 -144.29 227.95 -145.59 215.71 -146.64 203.47 -147.39 191.23 -147.81 178.99 -147.88 166.75 -147.59 154.5 -146.97 142.26 -146.03 130.02 -144.82 117.78 -143.39 105.54 -141.81 93.3 -140.15 81.06 -138.48 68.82 -136.88 56.58 -135.42 44.34 -134.17 32.1 -133.18 19.86 -132.49 7.62 -132.14 -4.61 -132.14 -16.85 -132.5 -29.09 -133.19 -41.33 -134.19 -53.57 -135.44 -65.81 -136.91 -78.05 -138.51 -90.29 -140.18 -102.53 -141.84 -114.77 -143.41 -127.01 -144.84 -142.3 -139.01 -139.79 -116.94 -135.07 -101.88 -131.35 -86.78" fill="url(#uuunion-grad2)" filter="url(#uuunion-blur)"></path><path d="M1433.28 332.08Q1442.26 333.24 1451.23 334.09 1460.21 334.62 1469.18 334.79 1478.15 334.63 1487.13 334.12 1496.1 333.28 1505.08 332.12 1514.05 330.69 1523.03 329 1532 327.1 1540.98 325.04 1549.95 322.85 1558.93 320.6 1567.9 318.34 1576.88 316.11 1587.25 333.54 1594.6 350.97 1597.94 368.41 1596.85 385.84 1591.47 403.27 1582.5 420.7 1571.13 438.13 1558.84 455.56 1547.26 472.99 1537.9 490.42 1532 507.86 1530.33 525.29 1533.12 542.72 1539.98 560.15 1550.04 577.58 1561.95 595.01 1574.15 612.44 1585.05 629.87 1593.21 647.3 1597.55 664.74 1597.51 682.17 1593.09 699.6 1584.87 717.03 1573.93 734.46 1561.71 751.89 1549.82 769.32 1539.82 786.75 1533.02 804.18 1530.32 821.62 1532.08 839.05 1538.05 856.48 1547.46 873.91 1535.39 878.73 1523.32 883.6 1511.25 888.32 1499.18 892.67 1487.12 896.45 1475.05 899.51 1462.98 901.7 1450.91 902.94 1438.84 903.15 1426.77 902.34 1414.7 900.54 1402.63 897.83 1390.56 894.33 1378.49 890.2 1366.42 885.61 1354.35 880.78 1342.28 875.91 1330.21 871.22 1318.14 866.92 1306.07 863.2 1294 860.22 1281.93 858.12 1269.86 856.99 1257.79 856.87 1245.72 857.78 1233.65 859.68 1221.58 862.47 1209.51 866.04 1197.44 870.23 1185.37 874.85 1173.3 879.7 1161.23 884.56 1149.16 889.22 1137.09 893.47 1125.02 897.12 1112.96 900.02 1100.89 902.03 1088.82 903.06 1076.75 903.07 1064.68 902.06 1052.61 900.08 1040.54 897.2 1028.47 893.56 1016.4 889.32 1004.33 884.67 992.26 879.81 980.19 874.96 968.12 870.33 956.05 866.13 943.98 862.55 931.91 859.73 919.84 857.82 907.77 856.88 895.7 856.97 883.63 858.08 871.56 860.16 859.49 863.12 847.42 866.83 835.35 871.11 823.28 875.8 811.21 880.66 799.14 885.5 787.07 890.1 775 894.24 762.93 897.76 750.86 900.49 738.79 902.31 726.73 903.14 714.66 902.95 702.59 901.74 690.52 899.57 678.45 896.53 666.38 892.76 654.31 888.43 642.24 883.72 630.17 878.84 618.1 874.02 606.03 869.46 593.96 865.37 581.89 861.92 569.82 859.28 557.75 857.55 545.68 856.82 533.61 857.11 521.54 858.42 509.47 860.68 497.4 863.8 485.33 867.63 473.26 872.01 461.19 876.75 449.12 881.63 437.05 886.44 424.98 890.96 412.91 894.99 400.84 898.37 388.77 900.92 376.7 902.56 364.63 903.19 352.56 902.79 340.5 901.39 328.43 899.04 316.36 895.84 304.29 891.95 292.22 887.52 280.15 882.76 268.08 877.88 256.01 873.09 243.94 868.61 231.87 864.63 219.8 861.33 207.73 858.86 195.66 857.33 183.59 856.8 171.52 857.29 159.45 858.79 147.38 861.23 135.31 864.5 123.24 868.46 111.17 872.93 99.1 877.71 87.03 882.59 74.96 887.36 62.89 891.8 50.82 895.72 38.75 898.94 26.68 901.32 9.19 897.9 4.77 882.89 5.53 872.74 6.01 862.59 6.18 852.44 6.05 842.29 5.49 827.07 5.86 822 17.53 815.14 29.18 807.31 40.82 798.58 52.48 789.07 64.17 778.94 75.91 768.37 87.72 757.57 99.62 746.75 111.6 736.12 123.69 725.88 135.87 716.2 148.16 707.26 160.55 699.15 173.04 691.97 185.62 685.74 198.27 680.45 210.99 676.06 223.76 672.46 236.57 669.54 249.4 667.12 262.23 665.03 275.05 663.07 287.84 661.05 300.58 658.76 313.27 656.04 325.89 652.71 338.43 648.65 350.88 643.77 363.24 638.02 375.51 631.36 387.69 623.85 399.77 615.53 411.78 606.52 423.71 596.95 435.59 586.97 447.42 576.77 459.22 566.52 471.02 556.42 482.82 546.64 494.66 537.33 506.55 528.64 518.51 520.67 530.57 513.5 542.73 507.15 555.03 501.62 567.46 496.88 580.05 492.84 592.81 489.39 605.73 486.41 618.82 483.72 632.08 481.17 645.5 478.59 659.08 475.8 672.79 472.64 686.62 468.99 700.55 464.72 714.56 459.74 728.62 454.02 742.69 447.53 756.76 440.29 770.78 432.36 784.73 423.82 798.57 414.79 812.27 405.39 822.38 401.55 832.49 397.64 842.59 393.73 852.69 389.89 862.79 386.21 872.88 382.74 882.96 379.55 893.04 376.69 903.11 374.21 913.18 372.13 923.24 370.49 933.28 369.29 943.32 368.53 953.35 368.2 963.37 368.26 973.38 368.68 983.37 369.42 993.36 370.41 1003.33 371.59 1013.29 372.9 1023.24 374.26 1033.17 375.6 1043.09 376.85 1052.99 377.94 1062.88 378.79 1072.75 379.36 1082.61 379.6 1092.45 379.45 1102.27 378.9 1112.08 377.93 1121.86 376.52 1131.63 374.68 1141.38 372.44 1151.11 369.81 1160.82 366.84 1170.52 363.58 1180.19 360.09 1189.84 356.42 1199.47 352.65 1209.08 348.85 1218.67 345.08 1228.24 341.42 1237.79 337.94 1247.32 334.7 1256.82 331.75 1266.31 329.14 1275.77 326.91 1285.21 325.08 1294.63 323.66 1304.02 322.68 1313.39 322.1 1322.75 321.92 1332.08 322.1 1341.38 322.61 1350.67 323.39 1359.93 324.38 1369.18 325.52 1378.4 326.75 1387.6 327.99 1396.78 329.18 1405.93 330.24 1415.07 331.12 1424.19 331.75 1433.28 332.08" fill="url(#uuunion-grad3)" filter="url(#uuunion-blur2)"></path></svg>
